<mxfile host="app.diagrams.net" agent="Mozilla/5.0 (Macintosh; Intel Mac OS X 10_15_7) AppleWebKit/537.36 (KHTML, like Gecko) Chrome/139.0.0.0 Safari/537.36" version="28.2.1">
  <diagram name="Page-1" id="6QKsrVG7LKCP5f2TS0Rn">
    <mxGraphModel dx="2104" dy="2084" grid="0" gridSize="10" guides="0" tooltips="1" connect="1" arrows="1" fold="1" page="1" pageScale="1" pageWidth="850" pageHeight="1100" math="0" shadow="0">
      <root>
        <mxCell id="0" />
        <mxCell id="1" parent="0" />
        <mxCell id="odiAHDI4Kex1UarROf_r-7" value="" style="group" parent="1" vertex="1" connectable="0">
          <mxGeometry x="50" y="150" width="1630" height="990" as="geometry" />
        </mxCell>
        <mxCell id="odiAHDI4Kex1UarROf_r-9" value="AZ: us-east-1b" style="rounded=1;arcSize=10;dashed=1;strokeColor=#F59D56;fillColor=none;gradientColor=none;dashPattern=8 4;strokeWidth=2;labelPosition=center;verticalLabelPosition=bottom;align=center;verticalAlign=top;fontSize=14;" parent="odiAHDI4Kex1UarROf_r-7" vertex="1">
          <mxGeometry x="850" y="110.01" width="710" height="479.99" as="geometry" />
        </mxCell>
        <mxCell id="odiAHDI4Kex1UarROf_r-61" value="&lt;div&gt;Application Subnet 2 (Private)&lt;/div&gt;&lt;div&gt;subnet-04d9ea5ca9f8e7251&lt;/div&gt;&lt;div&gt;10.1.12.0/24&lt;/div&gt;" style="points=[[0,0],[0.25,0],[0.5,0],[0.75,0],[1,0],[1,0.25],[1,0.5],[1,0.75],[1,1],[0.75,1],[0.5,1],[0.25,1],[0,1],[0,0.75],[0,0.5],[0,0.25]];outlineConnect=0;gradientColor=none;html=1;whiteSpace=wrap;fontSize=12;fontStyle=0;container=1;pointerEvents=0;collapsible=0;recursiveResize=0;shape=mxgraph.aws4.group;grIcon=mxgraph.aws4.group_security_group;grStroke=0;strokeColor=#00A4A6;fillColor=#E6F6F7;verticalAlign=top;align=center;spacingLeft=30;fontColor=#147EBA;dashed=0;labelPosition=center;verticalLabelPosition=bottom;" parent="odiAHDI4Kex1UarROf_r-7" vertex="1">
          <mxGeometry x="880" y="160" width="300" height="260" as="geometry" />
        </mxCell>
        <mxCell id="odiAHDI4Kex1UarROf_r-60" value="&lt;div&gt;Application Subnet 1 (Private)&lt;/div&gt;&lt;div&gt;subnet-0f9050dbed708de98&lt;/div&gt;&lt;div&gt;10.1.11.0/24&lt;/div&gt;" style="points=[[0,0],[0.25,0],[0.5,0],[0.75,0],[1,0],[1,0.25],[1,0.5],[1,0.75],[1,1],[0.75,1],[0.5,1],[0.25,1],[0,1],[0,0.75],[0,0.5],[0,0.25]];outlineConnect=0;gradientColor=none;html=1;whiteSpace=wrap;fontSize=12;fontStyle=0;container=1;pointerEvents=0;collapsible=0;recursiveResize=0;shape=mxgraph.aws4.group;grIcon=mxgraph.aws4.group_security_group;grStroke=0;strokeColor=#00A4A6;fillColor=#E6F6F7;verticalAlign=top;align=center;spacingLeft=30;fontColor=#147EBA;dashed=0;labelPosition=center;verticalLabelPosition=bottom;" parent="odiAHDI4Kex1UarROf_r-7" vertex="1">
          <mxGeometry x="400" y="150" width="340" height="280" as="geometry" />
        </mxCell>
        <mxCell id="odiAHDI4Kex1UarROf_r-8" value="AZ: us-east-1a" style="rounded=1;arcSize=10;dashed=1;strokeColor=#F59D56;fillColor=none;gradientColor=none;dashPattern=8 4;strokeWidth=2;labelPosition=center;verticalLabelPosition=bottom;align=center;verticalAlign=top;fontSize=14;" parent="odiAHDI4Kex1UarROf_r-7" vertex="1">
          <mxGeometry x="20" y="110" width="740" height="480" as="geometry" />
        </mxCell>
        <mxCell id="odiAHDI4Kex1UarROf_r-3" value="coalfire-sre-challenge-vpc&#xa;vpc-0ec596dba2594f886&#xa;CIDR: 10.1.0.0/16" style="rounded=1;arcSize=10;dashed=0;fillColor=none;gradientColor=none;strokeWidth=2;labelPosition=center;verticalLabelPosition=bottom;align=center;verticalAlign=top;labelBorderColor=none;strokeColor=light-dark(#4B9CD3,#4B9CD3);" parent="odiAHDI4Kex1UarROf_r-7" vertex="1">
          <mxGeometry y="30" width="1589.61" height="730" as="geometry" />
        </mxCell>
        <mxCell id="odiAHDI4Kex1UarROf_r-4" value="" style="dashed=0;html=1;shape=mxgraph.aws3.virtual_private_cloud;fillColor=#F58536;gradientColor=none;dashed=0;" parent="odiAHDI4Kex1UarROf_r-7" vertex="1">
          <mxGeometry x="66.23" width="123.77" height="79.2" as="geometry" />
        </mxCell>
        <mxCell id="odiAHDI4Kex1UarROf_r-27" value="NAT Gateway:&lt;br&gt;coalfire-sre-challenge-nat" style="outlineConnect=0;dashed=0;verticalLabelPosition=bottom;verticalAlign=top;align=center;html=1;shape=mxgraph.aws3.vpc_nat_gateway;fillColor=#F58534;gradientColor=none;" parent="odiAHDI4Kex1UarROf_r-7" vertex="1">
          <mxGeometry x="450" y="180" width="45.08" height="42.91" as="geometry" />
        </mxCell>
        <mxCell id="odiAHDI4Kex1UarROf_r-33" style="edgeStyle=orthogonalEdgeStyle;rounded=0;orthogonalLoop=1;jettySize=auto;html=1;exitX=0.5;exitY=1;exitDx=0;exitDy=0;exitPerimeter=0;" parent="odiAHDI4Kex1UarROf_r-7" source="odiAHDI4Kex1UarROf_r-28" edge="1">
          <mxGeometry relative="1" as="geometry">
            <mxPoint x="970.0909090909086" y="240" as="targetPoint" />
          </mxGeometry>
        </mxCell>
        <mxCell id="odiAHDI4Kex1UarROf_r-28" value="&lt;font style=&quot;font-size: 14px;&quot;&gt;ALB:&amp;nbsp;coalfire-sre-challenge-alb&lt;/font&gt;" style="outlineConnect=0;dashed=0;verticalLabelPosition=top;verticalAlign=bottom;align=center;html=1;shape=mxgraph.aws3.application_load_balancer;fillColor=#F58534;gradientColor=none;labelPosition=center;" parent="odiAHDI4Kex1UarROf_r-7" vertex="1">
          <mxGeometry x="770" y="79.19999999999999" width="69" height="72" as="geometry" />
        </mxCell>
        <mxCell id="odiAHDI4Kex1UarROf_r-30" value="Web Server 1&lt;br&gt;i-0eecb7b237a35d650" style="outlineConnect=0;dashed=0;verticalLabelPosition=bottom;verticalAlign=top;align=center;html=1;shape=mxgraph.aws3.ec2;fillColor=#F58534;gradientColor=none;" parent="odiAHDI4Kex1UarROf_r-7" vertex="1">
          <mxGeometry x="620" y="240.00000000000003" width="60" height="70" as="geometry" />
        </mxCell>
        <mxCell id="odiAHDI4Kex1UarROf_r-32" style="edgeStyle=orthogonalEdgeStyle;rounded=0;orthogonalLoop=1;jettySize=auto;html=1;exitX=0.5;exitY=1;exitDx=0;exitDy=0;exitPerimeter=0;entryX=0.5;entryY=0;entryDx=0;entryDy=0;entryPerimeter=0;" parent="odiAHDI4Kex1UarROf_r-7" source="odiAHDI4Kex1UarROf_r-28" target="odiAHDI4Kex1UarROf_r-30" edge="1">
          <mxGeometry relative="1" as="geometry" />
        </mxCell>
        <mxCell id="odiAHDI4Kex1UarROf_r-56" value="&lt;div&gt;Backend Subnet (Private)&lt;/div&gt;&lt;div&gt;subnet-09ee6d00fd49490fd&lt;/div&gt;&lt;div&gt;10.1.22.0/24&lt;/div&gt;" style="points=[[0,0],[0.25,0],[0.5,0],[0.75,0],[1,0],[1,0.25],[1,0.5],[1,0.75],[1,1],[0.75,1],[0.5,1],[0.25,1],[0,1],[0,0.75],[0,0.5],[0,0.25]];outlineConnect=0;gradientColor=none;html=1;whiteSpace=wrap;fontSize=14;fontStyle=0;container=1;pointerEvents=0;collapsible=0;recursiveResize=0;shape=mxgraph.aws4.group;grIcon=mxgraph.aws4.group_security_group;grStroke=0;strokeColor=#00A4A6;fillColor=#E6F6F7;verticalAlign=top;align=left;spacingLeft=30;fontColor=#147EBA;dashed=0;" parent="odiAHDI4Kex1UarROf_r-7" vertex="1">
          <mxGeometry x="1250" y="290" width="170" height="110" as="geometry" />
        </mxCell>
        <mxCell id="odiAHDI4Kex1UarROf_r-57" value="&lt;div&gt;Backend Subnet (Private)&lt;/div&gt;&lt;div&gt;subnet-01678f2688a314d3b&lt;/div&gt;&lt;div&gt;10.1.21.0/24&lt;/div&gt;" style="points=[[0,0],[0.25,0],[0.5,0],[0.75,0],[1,0],[1,0.25],[1,0.5],[1,0.75],[1,1],[0.75,1],[0.5,1],[0.25,1],[0,1],[0,0.75],[0,0.5],[0,0.25]];outlineConnect=0;gradientColor=none;html=1;whiteSpace=wrap;fontSize=14;fontStyle=0;container=1;pointerEvents=0;collapsible=0;recursiveResize=0;shape=mxgraph.aws4.group;grIcon=mxgraph.aws4.group_security_group;grStroke=0;strokeColor=#00A4A6;fillColor=#E6F6F7;verticalAlign=top;align=left;spacingLeft=30;fontColor=#147EBA;dashed=0;" parent="odiAHDI4Kex1UarROf_r-7" vertex="1">
          <mxGeometry x="90" y="380" width="190" height="110" as="geometry" />
        </mxCell>
        <mxCell id="odiAHDI4Kex1UarROf_r-58" value="&lt;div&gt;Management Subnet 2 (Public)&lt;/div&gt;&lt;div&gt;subnet-00be8b4e7538f35c5&lt;/div&gt;&lt;div&gt;10.1.2.0/24&lt;/div&gt;" style="points=[[0,0],[0.25,0],[0.5,0],[0.75,0],[1,0],[1,0.25],[1,0.5],[1,0.75],[1,1],[0.75,1],[0.5,1],[0.25,1],[0,1],[0,0.75],[0,0.5],[0,0.25]];outlineConnect=0;gradientColor=none;html=1;whiteSpace=wrap;fontSize=12;fontStyle=0;container=1;pointerEvents=0;collapsible=0;recursiveResize=0;shape=mxgraph.aws4.group;grIcon=mxgraph.aws4.group_security_group;grStroke=0;strokeColor=#7AA116;fillColor=#F2F6E8;verticalAlign=top;align=left;spacingLeft=30;fontColor=#248814;dashed=0;" parent="odiAHDI4Kex1UarROf_r-7" vertex="1">
          <mxGeometry x="1240" y="160" width="170" height="100" as="geometry" />
        </mxCell>
        <mxCell id="odiAHDI4Kex1UarROf_r-59" value="&lt;div&gt;Management Subnet 1 (Public)&lt;/div&gt;&lt;div&gt;subnet-0a91fc1a5e5a49b8d&lt;/div&gt;&lt;div&gt;10.1.1.0/24&lt;/div&gt;" style="points=[[0,0],[0.25,0],[0.5,0],[0.75,0],[1,0],[1,0.25],[1,0.5],[1,0.75],[1,1],[0.75,1],[0.5,1],[0.25,1],[0,1],[0,0.75],[0,0.5],[0,0.25]];outlineConnect=0;gradientColor=none;html=1;whiteSpace=wrap;fontSize=12;fontStyle=0;container=1;pointerEvents=0;collapsible=0;recursiveResize=0;shape=mxgraph.aws4.group;grIcon=mxgraph.aws4.group_security_group;grStroke=0;strokeColor=#7AA116;fillColor=#F2F6E8;verticalAlign=top;align=left;spacingLeft=30;fontColor=#248814;dashed=0;" parent="odiAHDI4Kex1UarROf_r-7" vertex="1">
          <mxGeometry x="66.23" y="160" width="270" height="200" as="geometry" />
        </mxCell>
        <mxCell id="odiAHDI4Kex1UarROf_r-53" value="Management Instance&lt;br&gt;&amp;nbsp;(bastion)" style="outlineConnect=0;dashed=0;verticalLabelPosition=bottom;verticalAlign=top;align=center;html=1;shape=mxgraph.aws3.ec2;fillColor=#F58534;gradientColor=none;" parent="odiAHDI4Kex1UarROf_r-7" vertex="1">
          <mxGeometry x="146.23000000000002" y="225" width="60" height="70" as="geometry" />
        </mxCell>
        <mxCell id="odiAHDI4Kex1UarROf_r-62" value="Web Server 2&lt;br&gt;i-0c12b0dcd110ca9aa" style="outlineConnect=0;dashed=0;verticalLabelPosition=bottom;verticalAlign=top;align=center;html=1;shape=mxgraph.aws3.ec2;fillColor=#F58534;gradientColor=none;" parent="odiAHDI4Kex1UarROf_r-7" vertex="1">
          <mxGeometry x="940" y="240" width="60" height="70" as="geometry" />
        </mxCell>
        <mxCell id="odiAHDI4Kex1UarROf_r-63" value="ALB Access Logs (Encrypted)" style="sketch=0;points=[[0,0,0],[0.25,0,0],[0.5,0,0],[0.75,0,0],[1,0,0],[0,1,0],[0.25,1,0],[0.5,1,0],[0.75,1,0],[1,1,0],[0,0.25,0],[0,0.5,0],[0,0.75,0],[1,0.25,0],[1,0.5,0],[1,0.75,0]];outlineConnect=0;fontColor=#232F3E;fillColor=#7AA116;strokeColor=#ffffff;dashed=0;verticalLabelPosition=bottom;verticalAlign=top;align=center;html=1;fontSize=12;fontStyle=0;aspect=fixed;shape=mxgraph.aws4.resourceIcon;resIcon=mxgraph.aws4.s3;" parent="odiAHDI4Kex1UarROf_r-7" vertex="1">
          <mxGeometry x="755.8" y="620" width="78" height="78" as="geometry" />
        </mxCell>
        <mxCell id="odiAHDI4Kex1UarROf_r-23" value="&lt;font style=&quot;font-size: 14px;&quot;&gt;Internet Gateway:&lt;br&gt;coalfire-sre-challenge-igw&lt;/font&gt;" style="outlineConnect=0;dashed=0;verticalLabelPosition=top;verticalAlign=bottom;align=center;html=1;shape=mxgraph.aws3.internet_gateway;fillColor=#F58534;gradientColor=none;labelPosition=center;" parent="1" vertex="1">
          <mxGeometry x="810.3" y="30" width="69" height="72" as="geometry" />
        </mxCell>
        <mxCell id="odiAHDI4Kex1UarROf_r-26" style="edgeStyle=orthogonalEdgeStyle;rounded=0;orthogonalLoop=1;jettySize=auto;html=1;exitX=0.5;exitY=0;exitDx=0;exitDy=0;labelPosition=center;verticalLabelPosition=middle;align=center;verticalAlign=middle;" parent="1" source="odiAHDI4Kex1UarROf_r-3" target="odiAHDI4Kex1UarROf_r-23" edge="1">
          <mxGeometry relative="1" as="geometry" />
        </mxCell>
      </root>
    </mxGraphModel>
  </diagram>
</mxfile>
